Coordinates
version=1
nRows=14
nColumns=40
inDegrees=yes

Units are S.I. units (second, meters, Newtons, ...)
If the header above contains a line with 'inDegrees', this indicates whether rotational values are in degrees (yes) or radians (no).

endheader
time	pelvis_tilt	pelvis_list	pelvis_rotation	pelvis_tx	pelvis_ty	pelvis_tz	hip_flexion_r	hip_adduction_r	hip_rotation_r	knee_angle_r	knee_angle_r_beta	ankle_angle_r	subtalar_angle_r	mtp_angle_r	hip_flexion_l	hip_adduction_l	hip_rotation_l	knee_angle_l	knee_angle_l_beta	ankle_angle_l	subtalar_angle_l	mtp_angle_l	lumbar_extension	lumbar_bending	lumbar_rotation	arm_flex_r	arm_add_r	arm_rot_r	elbow_flex_r	pro_sup_r	wrist_flex_r	wrist_dev_r	arm_flex_l	arm_add_l	arm_rot_l	elbow_flex_l	pro_sup_l	wrist_flex_l	wrist_dev_l
      0.32000000	     -5.52481913	     -7.03809817	      0.48699953	      0.67539069	      1.01241327	      0.58287807	     42.00099344	      7.13871757	     -3.34136584	     56.00451552	      0.97746319	      8.10772927	      0.00000000	      0.00000000	    -15.12952211	     -6.43590959	     -3.46377639	     20.02917342	      0.34957502	    -13.06734933	      0.00000000	      0.00000000	     -4.95034643	      9.70287682	    -18.09834823	    -34.05251591	    -21.86776900	     12.74316718	     66.99258614	     55.98627030	      0.00000000	      0.00000000	     -3.88982775	    -11.80956916	      9.33011871	    110.00674550	     66.46167153	      0.00000000	      0.00000000
      0.32500000	     -5.97958265	     -7.07545432	      0.12528816	      0.69260435	      1.01504864	      0.58410171	     41.66374313	      7.30792128	     -3.54850498	     52.65913376	      0.91907527	      8.01005863	      0.00000000	      0.00000000	    -15.26185903	     -6.51853619	     -4.14227594	     20.10961409	      0.35097898	    -14.28727599	      0.00000000	      0.00000000	     -4.12859746	      9.80749561	    -18.22723831	    -34.79694284	    -22.02108499	     12.28945522	     67.11953389	     55.94970037	      0.00000000	      0.00000000	     -4.16979926	    -11.86067454	      9.52197425	    110.04350233	     66.56733641	      0.00000000	      0.00000000
      0.33000000	     -6.32095959	     -7.20811125	     -0.17687788	      0.70983807	      1.01743709	      0.58559984	     41.15334901	      7.51440004	     -4.01425396	     49.29765416	      0.86040638	      7.60909235	      0.00000000	      0.00000000	    -15.49696242	     -6.73344352	     -4.66902650	     20.24995267	      0.35342835	    -15.71061495	      0.00000000	      0.00000000	     -3.50155886	      9.99211778	    -18.34516898	    -35.57737678	    -22.04006332	     11.51116220	     67.51934904	     55.91235462	      0.00000000	      0.00000000	     -4.37897733	    -11.89391216	      9.78691074	    110.08365512	     66.71649545	      0.00000000	      0.00000000
      0.33500000	     -6.79565087	     -7.17937837	     -0.43426865	      0.72685087	      1.01934458	      0.58692245	     40.78418422	      7.65124824	     -4.20275657	     45.95246474	      0.80202181	      7.40660343	      0.00000000	      0.00000000	    -15.51345935	     -6.70370935	     -4.64139826	     20.39357895	      0.35593510	    -16.77438353	      0.00000000	      0.00000000	     -2.66276892	      9.99271480	    -18.56205502	    -36.24981172	    -22.09193901	     11.11939080	     67.66959244	     55.88724392	      0.00000000	      0.00000000	     -4.66829107	    -12.05403394	     10.06411992	    110.11295473	     66.83058813	      0.00000000	      0.00000000
      0.34000000	     -6.90362928	     -7.04380562	     -0.71069081	      0.74385982	      1.02163248	      0.58788982	     40.00047425	      7.64176418	     -4.50972939	     42.72192026	      0.74563817	      7.05711786	      0.00000000	      0.00000000	    -15.81467170	     -6.55367904	     -4.83373496	     20.65885366	      0.36056502	    -18.35494092	      0.00000000	      0.00000000	     -2.30501001	      9.86846883	    -18.28622341	    -37.43122067	    -21.62294694	      9.30193984	     68.62938521	     55.76792082	      0.00000000	      0.00000000	     -4.42417860	    -12.17990740	     10.86670760	    109.76980933	     67.18005440	      0.00000000	      0.00000000
      0.34500000	     -7.25814383	     -6.87573649	     -0.72256803	      0.76046680	      1.02315410	      0.58929180	     39.49274940	      7.57077133	     -4.71661606	     39.52597492	      0.68985840	      6.60272894	      0.00000000	      0.00000000	    -15.65661259	     -6.43061313	     -4.13729388	     21.18383915	      0.36972774	    -20.00991114	      0.00000000	      0.00000000	     -1.65776408	      9.64350192	    -18.78827913	    -37.76299452	    -21.64040370	      9.23446146	     68.50409010	     55.73161036	      0.00000000	      0.00000000	     -4.67888390	    -12.48889477	     11.07351327	    109.86084052	     67.27386416	      0.00000000	      0.00000000
      0.35000000	     -7.46067816	     -6.43324083	     -0.90578727	      0.77707676	      1.02455864	      0.59050606	     38.92811381	      7.32925128	     -4.65644863	     36.67222626	      0.64005109	      6.27496027	      0.00000000	      0.00000000	    -15.53823253	     -5.96254528	     -3.72599592	     22.10465102	      0.38579894	    -20.87347143	      0.00000000	      0.00000000	     -1.26090074	      9.13323448	    -18.98285412	    -38.05207607	    -21.64447675	      9.10478691	     68.47342039	     55.70462285	      0.00000000	      0.00000000	     -4.85505907	    -12.73562414	     11.27162568	    110.00218409	     67.36785561	      0.00000000	      0.00000000
      0.35500000	     -7.60918681	     -6.18412589	     -0.94543886	      0.79367835	      1.02579864	      0.59158889	     38.22982723	      7.21475451	     -4.77667902	     33.77198135	      0.58943227	      5.77487447	      0.00000000	      0.00000000	    -15.41327876	     -5.68386252	     -2.95286040	     23.09848477	      0.40314461	    -21.75767709	      0.00000000	      0.00000000	     -0.90977830	      8.85694557	    -19.27407538	    -38.33588810	    -21.60408686	      8.79690242	     68.45563911	     55.65391846	      0.00000000	      0.00000000	     -5.14250442	    -12.94080902	     11.63418260	    110.11599291	     67.51274090	      0.00000000	      0.00000000
      0.36000000	     -7.71961656	     -5.83996647	     -0.96644858	      0.80982821	      1.02689846	      0.59263624	     37.57648160	      6.99869430	     -4.83905724	     31.10266594	      0.54284393	      5.38450831	      0.00000000	      0.00000000	    -15.16721032	     -5.28823214	     -1.98325331	     24.39013989	      0.42568825	    -22.08323318	      0.00000000	      0.00000000	     -0.71419722	      8.47601946	    -19.56888420	    -38.43915281	    -21.43524994	      8.53940441	     68.41667592	     55.60185974	      0.00000000	      0.00000000	     -5.36626753	    -13.15755346	     11.92432840	    110.24990807	     67.63547301	      0.00000000	      0.00000000
      0.36500000	     -7.85055982	     -5.46045105	     -1.13732779	      0.82594886	      1.02748852	      0.59404170	     36.97689860	      6.87738192	     -4.48920352	     28.64479648	      0.49994601	      5.40854063	      0.00000000	      0.00000000	    -14.91817790	     -4.79435233	     -1.01762777	     25.71915854	      0.44888400	    -22.14122969	      0.00000000	      0.00000000	     -0.50077841	      8.01586730	    -19.67946866	    -38.60065036	    -21.30882238	      8.43418435	     68.38820906	     55.57959058	      0.00000000	      0.00000000	     -5.51721976	    -13.34518909	     12.10699366	    110.42409237	     67.71947264	      0.00000000	      0.00000000
      0.37000000	     -7.72537870	     -5.16034961	     -1.18714969	      0.84185520	      1.02834605	      0.59502996	     36.04904822	      6.76529002	     -4.33174109	     26.18139290	      0.45695151	      4.89151285	      0.00000000	      0.00000000	    -14.65985553	     -4.43618186	     -0.27189292	     27.64047480	      0.48241729	    -21.43165734	      0.00000000	      0.00000000	     -0.63998887	      7.69661910	    -19.79820772	    -38.48032761	    -21.09538465	      8.19578265	     68.23070538	     55.50234325	      0.00000000	      0.00000000	     -5.60638033	    -13.65746421	     12.59804156	    110.52902674	     67.88621937	      0.00000000	      0.00000000
      0.37500000	     -7.68102764	     -4.59808950	     -1.30527762	      0.85790296	      1.02866863	      0.59620020	     35.31214721	      6.43352255	     -3.91300983	     24.14221029	      0.42136106	      4.97701048	      0.00000000	      0.00000000	    -14.41884446	     -3.72922619	      0.64988976	     29.26462403	      0.51076404	    -21.45705464	      0.00000000	      0.00000000	     -0.68784866	      7.04047722	    -19.76548345	    -38.59414619	    -20.99823060	      8.17637162	     68.17653645	     55.48954010	      0.00000000	      0.00000000	     -5.81538577	    -13.75313128	     12.68100593	    110.59848218	     67.92374478	      0.00000000	      0.00000000
      0.38000000	     -7.61546229	     -4.48593293	     -1.50619946	      0.87371659	      1.02901237	      0.59737187	     34.48847902	      6.59113870	     -3.39089456	     21.98006324	      0.38362447	      4.36380727	      0.00000000	      0.00000000	    -14.01321796	     -3.50455148	      1.16497262	     31.41530246	      0.54830046	    -20.24920912	      0.00000000	      0.00000000	     -0.77689856	      6.99904726	    -19.90144149	    -38.24234687	    -20.77434440	      8.05474243	     68.03876873	     55.43799253	      0.00000000	      0.00000000	     -5.95505409	    -14.08669673	     12.96455008	    110.69550747	     68.01849128	      0.00000000	      0.00000000
      0.38500000	     -7.43797891	     -4.25992816	     -1.53826867	      0.88945246	      1.02914863	      0.59843490	     33.61533642	      6.53524425	     -2.78948132	     20.14287540	      0.35155950	      4.30630056	      0.00000000	      0.00000000	    -13.67900100	     -3.17261056	      1.99429339	     33.58884671	      0.58623597	    -19.56736241	      0.00000000	      0.00000000	     -1.04190467	      6.75391172	    -19.97174089	    -38.00255086	    -20.56708056	      8.01390990	     67.87191514	     55.39460229	      0.00000000	      0.00000000	     -6.03545755	    -14.26792483	     13.20054052	    110.82865291	     68.10367860	      0.00000000	      0.00000000
